<svg xmlns="http://www.w3.org/2000/svg" viewBox="0 0 493.92 114.46"><g><path id="Type" d="M361.2,93.73h-19V20.48h19Zm-45-73.25L303.93,69.57,289.6,20.48H271.22L256.9,69.57,244.63,20.48H226l20.22,73.25H265.9L280.39,43.5,294.9,93.73h19.63l20.28-73.25ZM224.45,73c0-14-7.45-18.75-23.74-24.06-7.68-2.5-14.85-4.43-14.85-10.4,0-5.23,5.33-7,9.31-7,3.37,0,9.71.71,10.22,8.48h18c-.31-14.83-12.37-21.29-27.9-21.29-9.62,0-17.57,2.73-22.58,7.66a19.49,19.49,0,0,0-5.62,13.74c0,13.64,9.11,19.1,19.4,22.23,11.57,3.53,19.22,5.64,19.22,12,0,4.25-3.38,8.49-10,8.49-8.46,0-11.53-5-11.73-10h-18.2c0,16.88,14.23,23.06,29.93,23.06,20,0,28.58-11.42,28.58-22.94m204,0c0-16.15-11.75-20.42-26-24.67-6.85-2-13-3.82-13-9.79,0-5.23,5.32-7,9.31-7,3.39,0,9.7.71,10.21,8.48h18c-.31-14.83-12.36-21.29-27.91-21.29-9.61,0-17.59,2.73-22.57,7.66a19.53,19.53,0,0,0-5.62,13.74c0,13.64,9.09,19.1,19.41,22.23,11.56,3.53,19.23,5.64,19.23,12,0,4.25-3.37,8.49-10,8.49-8.48,0-11.56-5-11.74-10h-18.2c0,16.88,14.22,23.06,29.94,23.06,20,0,28.93-11.42,28.93-22.94m65.44,0c0-16.15-11.81-20.42-26-24.67-6.87-2-13-3.82-13-9.79,0-5.23,5.29-7,9.28-7,3.36,0,9.71.71,10.22,8.48h18c-.31-14.83-12.43-21.29-27.93-21.29C455,18.78,447,21.51,442,26.44a19.57,19.57,0,0,0-5.61,13.74c0,13.64,9.09,19.1,19.4,22.23,11.57,3.53,19.22,5.64,19.22,12,0,4.25-3.36,8.49-10,8.49-8.48,0-11.55-5-11.75-10H435C435,89.78,449.2,96,465,96c20.07,0,29-11.42,29-22.94" fill="#cf0a2c"></path><polygon id="Tailfin" points="125.26 114.46 0 114.46 91.81 0 153.46 0 125.26 114.46" fill="#cf0a2c"></polygon></g><polygon id="Cross" points="106.09 46.67 106.09 22.03 84.97 22.03 84.97 46.67 60.33 46.67 60.33 67.79 84.95 67.79 84.95 92.44 106.08 92.44 106.08 67.79 106.09 67.79 130.74 67.79 130.74 46.67 106.09 46.67" fill="#fff"></polygon></svg>