<svg version="1.1" id="Layer_1" xmlns="http://www.w3.org/2000/svg" xmlns:xlink="http://www.w3.org/1999/xlink" x="0px" y="0px" width="100%" viewBox="0 0 719 520" enable-background="new 0 0 719 520" xml:space="preserve">

<path fill="#FF5104" opacity="1.000000" stroke="none" d="
M1.000002,396.468262 
	C1.812554,392.545654 2.687401,389.104645 3.427665,385.634857 
	C8.721220,360.822906 20.260626,338.831879 34.355881,318.095886 
	C63.068054,275.856445 99.134300,240.587601 138.906479,208.926575 
	C159.100006,192.851273 180.233109,178.139359 203.707413,166.386658 
	C207.266861,175.972305 210.289413,185.335129 213.052612,194.953857 
	C209.791779,197.852417 206.786682,200.490982 203.789383,203.138367 
	C170.297699,232.720291 137.281677,262.795227 108.445206,297.089661 
	C91.247391,317.542542 75.402290,338.928192 65.498344,364.052216 
	C60.817417,375.926636 57.840988,388.198029 59.424637,401.121063 
	C61.828632,420.738312 73.777908,433.381836 89.991310,443.039215 
	C109.684708,454.769409 131.479965,458.009857 153.762665,458.823975 
	C201.888367,460.582428 249.583359,455.427521 297.439178,449.392548 
	C300.153046,457.251556 302.614563,464.874359 305.076080,472.497162 
	C278.461273,484.021667 250.430908,490.356384 221.948227,494.885712 
	C195.895309,499.028687 169.648544,500.863678 143.268936,499.960907 
	C112.962624,498.923737 83.198708,494.855560 55.348221,481.929962 
	C32.490219,471.321442 14.498993,455.690857 5.747756,431.257690 
	C3.909836,426.126251 3.035607,420.649597 1.358662,415.166016 
	C1.000000,408.978851 1.000000,402.957703 1.000002,396.468262 
z" data-index="1" style="visibility: visible; opacity: 1;"></path>
<path fill="#012448" opacity="1.000000" stroke="none" d="
M305.536682,472.556030 
	C302.614563,464.874359 300.153046,457.251556 297.375244,449.001831 
	C284.023590,408.763977 271.019226,369.142883 257.944733,329.544891 
	C243.099899,284.585114 228.192291,239.646042 213.311981,194.697952 
	C210.289413,185.335129 207.266861,175.972305 204.037827,166.297974 
	C191.782394,129.207123 179.732697,92.428009 167.687988,55.647266 
	C167.332474,54.561615 167.029373,53.458797 166.534836,51.805889 
	C168.213470,51.667450 169.610046,51.453018 171.006790,51.451843 
	C195.337311,51.431377 219.668777,51.540443 243.997421,51.326084 
	C247.665314,51.293770 248.818085,52.761166 249.783936,55.804539 
	C281.799805,156.686752 313.876282,257.549713 345.951294,358.413147 
	C346.484680,360.090485 347.109283,361.738770 348.204346,364.865540 
	C351.917206,352.804352 355.207306,342.152283 358.475769,331.493591 
	C386.828125,239.034256 415.176605,146.573746 444.054199,53.668407 
	C471.539276,51.806377 498.496368,50.389523 525.570068,49.330666 
	C525.376831,50.809353 525.111572,51.944592 524.750854,53.048660 
	C491.997742,153.303009 459.220306,253.549408 426.494110,353.812500 
	C420.936218,370.840057 415.596558,387.938782 409.993713,405.342224 
	C405.641418,418.331696 401.451538,430.983521 397.261658,443.635376 
	C394.067535,453.231750 390.873413,462.828156 387.615967,472.614868 
	C360.282593,472.614868 333.139923,472.614868 305.536682,472.556030 
z" data-index="2" style="visibility: visible; opacity: 1;"></path>
<path fill="#FF5105" opacity="1.000000" stroke="none" d="
M525.453491,48.972668 
	C498.496368,50.389523 471.539276,51.806377 444.174622,53.295364 
	C434.866394,53.367493 425.965729,53.367493 417.065063,53.367493 
	C416.977692,52.913685 416.890320,52.459877 416.802979,52.006069 
	C431.902802,46.143665 446.915253,40.043026 462.120087,34.466972 
	C496.992676,21.678175 532.479065,11.012450 569.304871,5.464059 
	C597.284668,1.248461 625.275085,-0.315981 653.115723,6.774374 
	C700.326111,18.797747 719.318115,53.998440 716.436462,97.639130 
	C713.851379,136.789795 698.693726,171.787582 679.306335,205.125031 
	C645.119629,263.910400 599.526978,312.759369 546.809143,355.216003 
	C503.017365,390.484039 455.296173,419.308136 403.642120,441.574860 
	C401.815674,442.362152 399.931976,443.016663 397.668335,443.684204 
	C401.451538,430.983521 405.641418,418.331696 410.341797,405.316620 
	C411.305939,404.767578 411.796112,404.641083 412.208038,404.387512 
	C470.442627,368.543121 524.790222,327.779572 571.714233,277.716431 
	C605.880554,241.264435 634.379944,200.979095 654.533020,154.998474 
	C662.997925,135.685059 668.588257,115.879562 667.896912,94.665100 
	C667.286804,75.942184 660.763489,60.522461 642.580444,52.225914 
	C632.127563,47.456501 620.951721,45.222527 609.611389,45.145157 
	C591.143127,45.019161 572.659363,45.547230 554.200745,46.272614 
	C544.597778,46.649994 535.034607,48.040051 525.453491,48.972668 
z" data-index="3" style="visibility: visible; opacity: 1;"></path>

<path fill="#FFFFFE" opacity="1.000000" stroke="none" d="
M525.570068,49.330666 
	C535.034607,48.040051 544.597778,46.649994 554.200745,46.272614 
	C572.659363,45.547230 591.143127,45.019161 609.611389,45.145157 
	C620.951721,45.222527 632.127563,47.456501 642.580444,52.225914 
	C660.763489,60.522461 667.286804,75.942184 667.896912,94.665100 
	C668.588257,115.879562 662.997925,135.685059 654.533020,154.998474 
	C634.379944,200.979095 605.880554,241.264435 571.714233,277.716431 
	C524.790222,327.779572 470.442627,368.543121 412.208038,404.387512 
	C411.796112,404.641083 411.305939,404.767578 410.504181,404.979004 
	C415.596558,387.938782 420.936218,370.840057 426.494110,353.812500 
	C459.220306,253.549408 491.997742,153.303009 524.750854,53.048660 
	C525.111572,51.944592 525.376831,50.809353 525.570068,49.330666 
z" data-index="5" style="visibility: hidden; opacity: 1;"></path>
</svg>