<svg width="7640" height="1772" viewBox="0 0 7640 1772" fill="none" xmlns="http://www.w3.org/2000/svg">
<path d="M1419.45 0H2375C2227.29 590.14 2085.24 1181.96 1937.08 1772H0V1753.56L0.152798 1771.59C471.994 1180.08 945.516 589.835 1419.45 0ZM1312.28 341.465C1312.49 468.374 1311.98 595.437 1312.59 722.398C1186.12 722.703 1059.61 722.092 933.088 722.703C933.751 831.636 933.751 940.415 933.088 1049.3C1059.61 1049.96 1186.12 1049.3 1312.59 1049.65C1311.98 1176.56 1312.49 1303.68 1312.28 1430.59C1422.14 1431.2 1531.85 1430.89 1641.67 1430.74C1641.05 1303.68 1641.67 1176.56 1641.36 1049.5C1768.34 1049.5 1895.26 1049.65 2022.29 1049.5C2022.08 940.568 2022.08 831.534 2022.29 722.448C1895.31 722.448 1768.39 722.448 1641.36 722.601C1641.67 595.488 1641.05 468.425 1641.67 341.363C1531.85 341.108 1422.09 340.752 1312.28 341.465ZM2687.26 395.804C2787.55 308.719 2927 285.954 3055.61 290.232C3174.49 295.427 3303.7 326.136 3384.69 419.739C3434.6 474.587 3451.92 549.144 3457.57 621.104C3364.06 621.868 3270.75 621.562 3177.24 621.257C3172.2 569.77 3145.61 516.297 3092.74 500.611C3023.83 481.004 2930.93 483.907 2887.12 549.45C2855.19 603.076 2888.91 670.605 2942.08 694.795C3091.36 770.88 3276.1 784.172 3398.54 908.332C3516.5 1045.63 3492.05 1282.44 3347.2 1392.34C3244.32 1473.82 3106.44 1492.31 2979.11 1485.23C2859.32 1477.64 2731.37 1446.22 2646.57 1355.52C2588.66 1294.87 2564.97 1209.82 2566.2 1127.37C2659.4 1127.16 2752.76 1127.37 2845.92 1127.37C2853.1 1165.26 2861.66 1205.9 2890.84 1233.55C2936.99 1281.22 3009.26 1287.69 3071.4 1278.47C3134.2 1268.23 3189.05 1210.48 3183.55 1144.78C3181.87 1099.87 3145.51 1066.61 3108.22 1047.01C2980.28 978.916 2825.39 971.634 2707.43 882.664C2554.28 773.121 2543.53 517.722 2687.26 395.804ZM5835.16 396.873C5931.17 312.233 6064.67 288.552 6188.79 289.519C6308.84 293.339 6439.89 319.311 6525.71 410.369C6580.82 465.828 6602.21 544.663 6607 620.9C6513.28 621.97 6419.77 622.072 6326.16 620.9C6320.86 572.469 6298.81 520.829 6249.45 503.718C6187.26 482.328 6109.49 482.787 6056.47 526.024C6014.19 560.756 6014.91 630.067 6051.88 668.364C6091.15 708.749 6147.59 723.569 6199.38 740.018C6305.73 772.713 6417.12 801.742 6507.99 869.118C6666.34 984.773 6665.27 1247.05 6521.53 1374.16C6420.08 1467.15 6275.12 1491.65 6142.03 1486.1C6017.86 1479.68 5882.99 1449.53 5795.54 1354.04C5737.63 1294 5715.06 1209.05 5714.86 1127.42C5808.37 1127.27 5902.09 1127.42 5995.6 1127.27C6003.65 1164.49 6010.22 1204.93 6039.35 1232.23C6093.19 1287.23 6181.51 1292.63 6250.93 1269.96C6326.72 1243.94 6364.51 1134.8 6300.84 1077.31C6238.65 1023.83 6155.68 1005.75 6079.79 980.495C5974.67 949.939 5861.65 911.54 5794.11 819.566C5704.57 694.286 5716.8 500.102 5835.16 396.873ZM6853.06 391.22C6967.14 298.686 7123.36 279.996 7265.41 294.204C7374.05 304.288 7488.85 343.4 7557.2 433.184C7599.88 486.402 7614.2 555.001 7619.29 621.053C7526.18 621.97 7433.18 620.9 7340.18 621.664C7330.81 587.747 7325.25 549.093 7296.02 525.718C7243.81 482.328 7166.5 482.634 7104.92 503.412C7055 519.81 7023.63 576.645 7040.44 627.521C7057.04 681.198 7112.66 706.967 7161.71 724.078C7282.88 765.074 7413.37 790.894 7518.54 867.997C7678.63 982.888 7677.5 1248.06 7532.65 1375.08C7434.25 1464.76 7294.59 1489.97 7165.48 1486.5C7043.24 1481.46 6911.73 1455.74 6820.31 1368.3C6754.35 1307.04 6725.42 1215.52 6726.69 1127.32C6820 1127.47 6913.31 1127.47 7006.52 1127.32C7013.9 1187.05 7045.23 1247.45 7104.92 1268.54C7176.43 1292.22 7272.03 1290.84 7320.98 1224.59C7360.96 1175.34 7349.8 1095.69 7294.49 1062.49C7159.87 975.708 6983.44 978.305 6857.79 873.803C6712.28 758.708 6709.32 508.963 6853.06 391.22ZM3494.14 316.714C3590.56 316.51 3686.92 317.02 3783.34 316.409C3847.11 568.853 3910.98 821.399 3972.45 1074.56C4047.27 822.214 4119.39 569.057 4194.01 316.51C4289.1 316.714 4384.29 316.714 4479.49 316.714C4554.82 568.242 4623.52 822.01 4702.72 1072.52C4761.09 819.872 4827.56 569.057 4888.63 317.02C4985.2 316.51 5082.22 316.51 5178.79 316.867C5073.77 695.661 4970.07 1074.81 4863.93 1453.2C4762.98 1453.05 4662.08 1452.84 4561.13 1453.2C4485.45 1194.8 4410.32 935.985 4337.49 676.563C4260.17 934.712 4188.15 1194.59 4112.06 1453.05C4011.36 1453.2 3910.62 1452.38 3809.87 1453.5C3701.23 1075.63 3601.35 694.999 3494.14 316.714ZM5291.92 1453.2C5290.85 1074.4 5291.81 695.508 5291.51 316.714H5586.46C5586.15 695.508 5587.07 1074.35 5585.95 1453.05C5488.01 1453.05 5389.91 1452.84 5291.92 1453.2Z" fill="#CC0000"/>
<path d="M1312.29 341.463C1422.15 340.801 1531.86 341.107 1641.67 341.26C1641.06 468.373 1641.67 595.436 1641.36 722.549C1768.34 722.396 1895.26 722.396 2022.29 722.396C2022.09 831.532 2022.09 940.567 2022.29 1049.45C1895.31 1049.6 1768.39 1049.45 1641.36 1049.45C1641.67 1176.51 1641.06 1303.62 1641.67 1430.69C1531.86 1430.84 1422.1 1431.15 1312.29 1430.48C1312.49 1303.62 1311.98 1176.51 1312.59 1049.6C1186.13 1049.24 1059.61 1049.91 933.092 1049.24C933.754 940.312 933.754 831.634 933.092 722.651C1059.61 722.04 1186.13 722.651 1312.59 722.345C1311.98 595.436 1312.49 468.322 1312.29 341.463Z" fill="white"/>
</svg>
