<svg xmlns="http://www.w3.org/2000/svg" width="320.001" height="49" viewBox="0 0 320.001 49"><g transform="translate(616.688 -396.88)"><path d="M-328.228,413.8v-4.286h13.105v-3.983h-13.105v-4.191h16.8v-4.192h-22.053v20.948h22.635v-4.3Z" transform="translate(-12.846 -0.013)" fill="#fff"/><g transform="translate(-503.869 397.071)"><path d="M-473.247,397.081v4.248h-12.626c-5.071,0-7.58,2.955-7.581,6.3s2.55,6.262,7.582,6.262h12.625v4.269H-487.14c-7.609-.015-11.368-5.1-11.368-10.539s3.759-10.542,11.368-10.542Z" transform="translate(498.508 -397.081)" fill="#fff"/></g><path d="M-561.232,397.15h-24.2l0,3.978h9.467V418.1h5.261v-16.97h9.471Z" transform="translate(-1.418 -0.013)" fill="#fff"/><path d="M-518.408,409.007l4.241-7.128,4.238,7.128Zm13.884,9.1h6.092l-12.647-20.964h-6.33l-12.584,20.953h6.178l3.037-5.1h13.213Z" transform="translate(-3.933 -0.013)" fill="#fff"/><path d="M-342.947,397.153l-4.066,15.257h-.058l-4.3-15.257h-5.7l-4.3,15.257h-.059l-4.067-15.257h-5.714l6.659,20.949h5.89l4.42-14.906h.044l4.42,14.906h5.89l6.66-20.949Z" transform="translate(-11.135 -0.013)" fill="#fff"/><g transform="translate(-559.878 396.88)"><path d="M-411.549,405.935h-11.324v-4.809h11.3a2.238,2.238,0,0,1,2.487,2.4,2.244,2.244,0,0,1-2.466,2.407m.846-8.789h-17.432V418.1h5.261v-8.174H-410.7c5.457.007,6.853-3.555,6.853-6.4,0-3.05-1.4-6.382-6.861-6.382" transform="translate(551.326 -396.893)" fill="#fff"/><path d="M-290.359,405.932l-11.25,0v-4.815l11.228.008c1.717,0,2.486.909,2.486,2.274a2.337,2.337,0,0,1-2.465,2.532m5.966,1.715a5.472,5.472,0,0,0,1.743-4.055c0-3.053-1.329-6.48-6.9-6.448h-17.319V418.1h5.261v-8.175H-291.1c2.2-.03,3.295,1.193,3.2,2.978,0,1.346,0,5.2,0,5.2h5.265v-6.691c0-2.961-1.76-3.76-1.76-3.76" transform="translate(545.825 -396.893)" fill="#fff"/><path d="M-540.667,405.934l-11.249,0v-4.815l11.228.008c1.716,0,2.486.909,2.486,2.274a2.338,2.338,0,0,1-2.465,2.531m5.967,1.715a5.474,5.474,0,0,0,1.741-4.055c0-3.053-1.329-6.479-6.9-6.447h-17.319V418.1h5.261v-8.175h10.51c2.2-.03,3.3,1.192,3.2,2.979,0,1.345,0,5.2,0,5.2h5.265v-6.691c0-2.96-1.76-3.759-1.76-3.759" transform="translate(557.179 -396.893)" fill="#fff"/><path d="M-454.948,414.236h-3.181c-5.032,0-7.584-3.261-7.584-6.607s2.283-6.645,7.354-6.645h3.183c5.071,0,7.81,3.3,7.81,6.645s-2.552,6.607-7.583,6.607m1.424-17.352v0h-6.1c-7.609,0-11.14,5.3-11.14,10.742s3.759,10.706,11.368,10.719h5.718c7.608-.013,11.367-5.282,11.367-10.719,0-5.351-3.862-10.568-11.211-10.737" transform="translate(553.259 -396.88)" fill="#fff"/><path d="M-385.184,414.236h-3.181c-5.032,0-7.584-3.261-7.584-6.607s2.284-6.645,7.355-6.645h3.183c5.071,0,7.81,3.3,7.81,6.645s-2.552,6.607-7.583,6.607m1.424-17.352v0h-6.1c-7.608,0-11.14,5.3-11.14,10.742s3.759,10.706,11.368,10.719h5.718c7.608-.013,11.367-5.282,11.367-10.719,0-5.351-3.862-10.568-11.211-10.737" transform="translate(550.095 -396.88)" fill="#fff"/></g><rect width="8.738" height="20.947" transform="translate(-616.687 397.134)" fill="#e63c64"/><rect width="8.738" height="20.947" transform="translate(-604.721 397.134)" fill="#e63c64"/><g transform="translate(-606.917 397.134)"><rect width="1.163" height="20.947" transform="translate(0 0)" fill="#e63c64"/></g><g transform="translate(-586.857 436.507)"><path d="M-583.823,444.069v3.678h-1.617v-9.2h3.356a4.493,4.493,0,0,1,2.3.42,2.549,2.549,0,0,1,1.307,2.353,2.61,2.61,0,0,1-1.212,2.258,4.173,4.173,0,0,1-.714.324l2.29,3.841h-1.927l-2.129-3.678Zm0-1.461h1.739a3.213,3.213,0,0,0,1.293-.176,1.242,1.242,0,0,0,.646-1.15,1.186,1.186,0,0,0-.646-1.122,3.21,3.21,0,0,0-1.293-.176h-1.739Z" transform="translate(585.44 -438.55)" fill="#fff"/><path d="M-571.182,446.421a3.428,3.428,0,0,1-3.018,1.623,3.134,3.134,0,0,1-3.193-3.435,3.111,3.111,0,0,1,3.153-3.314c2.048,0,3.031,1.421,3.031,3.395,0,.109-.013.284-.013.393H-575.9a1.7,1.7,0,0,0,1.779,1.637,2.113,2.113,0,0,0,1.873-1.11Zm-4.676-2.488h3.125a1.429,1.429,0,0,0-1.508-1.408A1.565,1.565,0,0,0-575.858,443.933Z" transform="translate(585.075 -438.685)" fill="#fff"/><path d="M-567.925,447.747h-1.536v-9.2h1.536Z" transform="translate(584.715 -438.55)" fill="#fff"/><path d="M-564.481,440.12h-1.536v-1.57h1.536Zm0,7.627h-1.536V441.31h1.536Z" transform="translate(584.559 -438.55)" fill="#fff"/><path d="M-557.459,446.409c0,.406.054.541.417.541h.081v1.014a3.183,3.183,0,0,1-.727.069c-.593,0-1.011-.163-1.132-.663h-.013a2.321,2.321,0,0,1-1.913.689,1.994,1.994,0,0,1-2.263-2.028,1.734,1.734,0,0,1,.364-1.136,3.1,3.1,0,0,1,1.9-.88l1.415-.243c.337-.067.4-.095.4-.338v-.109c0-.54-.35-.81-1.146-.81-.862,0-1.307.365-1.294,1.121l-1.441-.094c-.027-1.581,1.267-2.218,2.8-2.218,1.469,0,2.547.474,2.547,1.894Zm-1.469-.811v-.784a5.835,5.835,0,0,1-.875.23l-.593.122c-.727.148-1.051.338-1.051.851s.35.88,1.1.88A1.241,1.241,0,0,0-558.928,445.6Z" transform="translate(584.422 -438.686)" fill="#fff"/><path d="M-553.81,447.071v.676h-1.536v-9.2h1.536v3.463a2.416,2.416,0,0,1,1.886-.865c1.738,0,2.843,1.406,2.843,3.408,0,1.934-1.131,3.354-2.843,3.354A2.316,2.316,0,0,1-553.81,447.071Zm1.563-.5c.984,0,1.631-.771,1.631-2.043,0-1.3-.646-2.055-1.631-2.055s-1.63.811-1.63,2.055S-553.217,446.57-552.247,446.57Z" transform="translate(584.075 -438.55)" fill="#fff"/><path d="M-545.778,447.747h-1.536v-9.2h1.536Z" transform="translate(583.71 -438.55)" fill="#fff"/><path d="M-538.082,446.421a3.426,3.426,0,0,1-3.018,1.623,3.134,3.134,0,0,1-3.193-3.435,3.111,3.111,0,0,1,3.153-3.314c2.048,0,3.032,1.421,3.032,3.395,0,.109-.014.284-.014.393H-542.8a1.7,1.7,0,0,0,1.78,1.637,2.113,2.113,0,0,0,1.873-1.11Zm-4.675-2.488h3.126a1.428,1.428,0,0,0-1.508-1.408A1.565,1.565,0,0,0-542.757,443.933Z" transform="translate(583.573 -438.685)" fill="#fff"/><path d="M-534.833,446.344v1.785h-1.738v-1.785Z" transform="translate(583.223 -438.932)" fill="#fff"/><path d="M-529.157,447.747h-1.684l3.18-9.2h1.833l3.152,9.2h-1.738l-.7-2.083h-3.329Zm2.722-6.329c-.148-.433-.242-.826-.337-1.176h-.013c-.081.338-.189.717-.337,1.15l-.862,2.825h2.4Z" transform="translate(582.963 -438.55)" fill="#fff"/><path d="M-516.607,441.452l-2.115,6.437h-1.6l-2.09-6.437h1.59l.984,3.34c.2.664.35,1.286.35,1.286h.013s.135-.622.337-1.327l.957-3.3Z" transform="translate(582.581 -438.692)" fill="#fff"/><path d="M-510.44,446.409c0,.406.053.541.417.541h.081v1.014a3.192,3.192,0,0,1-.728.069c-.593,0-1.01-.163-1.131-.663h-.013a2.321,2.321,0,0,1-1.913.689,2,2,0,0,1-2.264-2.028,1.734,1.734,0,0,1,.365-1.136,3.091,3.091,0,0,1,1.9-.88l1.415-.243c.336-.067.4-.095.4-.338v-.109c0-.54-.351-.81-1.147-.81-.862,0-1.307.365-1.293,1.121l-1.443-.094c-.027-1.581,1.267-2.218,2.8-2.218,1.47,0,2.547.474,2.547,1.894Zm-1.468-.811v-.784a5.89,5.89,0,0,1-.876.23l-.593.122c-.727.148-1.051.338-1.051.851s.35.88,1.1.88A1.242,1.242,0,0,0-511.908,445.6Z" transform="translate(582.29 -438.686)" fill="#fff"/><path d="M-506.791,440.12h-1.537v-1.57h1.537Zm0,7.627h-1.537V441.31h1.537Z" transform="translate(581.942 -438.55)" fill="#fff"/><path d="M-503.347,447.747h-1.536v-9.2h1.536Z" transform="translate(581.786 -438.55)" fill="#fff"/><path d="M-496.325,446.409c0,.406.054.541.417.541h.081v1.014a3.181,3.181,0,0,1-.727.069c-.593,0-1.011-.163-1.132-.663h-.012a2.324,2.324,0,0,1-1.913.689,2,2,0,0,1-2.264-2.028,1.734,1.734,0,0,1,.364-1.136,3.1,3.1,0,0,1,1.9-.88l1.414-.243c.337-.067.4-.095.4-.338v-.109c0-.54-.35-.81-1.146-.81-.863,0-1.307.365-1.293,1.121l-1.442-.094c-.027-1.581,1.268-2.218,2.8-2.218,1.469,0,2.547.474,2.547,1.894Zm-1.468-.811v-.784a5.845,5.845,0,0,1-.876.23l-.593.122c-.728.148-1.051.338-1.051.851s.35.88,1.1.88A1.242,1.242,0,0,0-497.793,445.6Z" transform="translate(581.65 -438.686)" fill="#fff"/><path d="M-492.676,447.071v.676h-1.536v-9.2h1.536v3.463a2.416,2.416,0,0,1,1.887-.865c1.738,0,2.842,1.406,2.842,3.408,0,1.934-1.131,3.354-2.842,3.354A2.316,2.316,0,0,1-492.676,447.071Zm1.564-.5c.983,0,1.63-.771,1.63-2.043,0-1.3-.646-2.055-1.63-2.055s-1.631.811-1.631,2.055S-492.083,446.57-491.112,446.57Z" transform="translate(581.302 -438.55)" fill="#fff"/><path d="M-484.644,447.747h-1.536v-9.2h1.536Z" transform="translate(580.938 -438.55)" fill="#fff"/><path d="M-476.948,446.421a3.429,3.429,0,0,1-3.019,1.623,3.134,3.134,0,0,1-3.193-3.435,3.112,3.112,0,0,1,3.153-3.314c2.049,0,3.032,1.421,3.032,3.395,0,.109-.014.284-.014.393h-4.675a1.7,1.7,0,0,0,1.779,1.637,2.113,2.113,0,0,0,1.873-1.11Zm-4.675-2.488h3.126a1.43,1.43,0,0,0-1.509-1.408A1.564,1.564,0,0,0-481.623,443.933Z" transform="translate(580.8 -438.685)" fill="#fff"/><path d="M-473.7,446.344v1.785h-1.737v-1.785Z" transform="translate(580.45 -438.932)" fill="#fff"/><path d="M-463.706,443.812c.2.311.578.919.7,1.122,0-.3-.027-2-.027-3.3V438.55h1.6v9.2h-1.509l-3.611-5.531c-.283-.447-.566-.946-.579-.946.012.433.027,1.866.027,3.407v3.07h-1.6v-9.2h1.508Z" transform="translate(580.145 -438.55)" fill="#fff"/><path d="M-456.364,441.295a3.091,3.091,0,0,1,3.207,3.395,3.058,3.058,0,0,1-3.207,3.354,3.058,3.058,0,0,1-3.208-3.354A3.091,3.091,0,0,1-456.364,441.295Zm0,5.424c.983,0,1.683-.785,1.683-2.057,0-1.3-.673-2.055-1.683-2.055s-1.685.771-1.685,2.055S-457.349,446.719-456.364,446.719Z" transform="translate(579.731 -438.685)" fill="#fff"/><path d="M-447.407,445.428a21.817,21.817,0,0,1-.485-2.15h-.013c-.136.636-.324,1.5-.512,2.178l-.714,2.434h-1.523l-1.846-6.437h1.563l.754,2.84c.162.636.31,1.15.431,1.813h.013c.121-.636.229-1.1.431-1.853l.742-2.8h1.36l.741,2.84c.216.825.31,1.15.432,1.813h.013c.121-.636.216-1.014.444-1.853l.755-2.8h1.536l-1.953,6.437h-1.5Z" transform="translate(579.41 -438.692)" fill="#fff"/><path d="M-440.965,446.344v1.785H-442.7v-1.785Z" transform="translate(578.965 -438.932)" fill="#fff"/></g></g></svg>